<svg width="27" height="27" viewBox="0 0 27 27" fill="none" xmlns="http://www.w3.org/2000/svg">
<path d="M8.72266 16.6152C8.72266 17.074 9.09495 17.4462 9.55371 17.4463H17.4463V25.3389C17.4461 25.7975 17.0739 26.1689 16.6152 26.1689H8.72266C3.90528 26.1687 7.98867e-05 22.2637 0 17.4463C0 12.6288 3.90523 8.72288 8.72266 8.72266V16.6152ZM17.4463 0C22.2637 8.10083e-05 26.1687 3.90528 26.1689 8.72266C26.1689 13.3896 22.5043 17.2007 17.8955 17.4346L17.4463 17.4463V9.55371C17.4462 9.09495 17.074 8.72266 16.6152 8.72266H8.72266V0.831055C8.72266 0.372275 9.09495 6.71435e-05 9.55371 0H17.4463Z" fill="#CB3CFF"/>
<path d="M9.46031 0C9.05318 0 8.72314 0.330038 8.72314 0.737161L8.72315 8.72307H16.7091C17.1162 8.72307 17.4462 9.05311 17.4462 9.46024L17.4462 17.4461C22.2638 17.4461 26.1693 13.5407 26.1693 8.72307C26.1693 3.90545 22.2638 0 17.4462 0H9.46031Z" fill="#00C2FF"/>
</svg>
